<?xml version="1.0" encoding="UTF-8" standalone="no"?>
<svg
   xmlns:dc="http://purl.org/dc/elements/1.1/"
   xmlns:cc="http://creativecommons.org/ns#"
   xmlns:rdf="http://www.w3.org/1999/02/22-rdf-syntax-ns#"
   xmlns:svg="http://www.w3.org/2000/svg"
   xmlns="http://www.w3.org/2000/svg"
   xmlns:sodipodi="http://sodipodi.sourceforge.net/DTD/sodipodi-0.dtd"
   xmlns:inkscape="http://www.inkscape.org/namespaces/inkscape"
   viewBox="0 0 1238 1238"
   width="100"
   height="100"
   version="1.1"
   id="svg4"
   sodipodi:docname="instagram-icon.svg"
   inkscape:version="0.92.5 (2060ec1f9f, 2020-04-08)">
  <metadata
     id="metadata10">
    <rdf:RDF>
      <cc:Work
         rdf:about="">
        <dc:format>image/svg+xml</dc:format>
        <dc:type
           rdf:resource="http://purl.org/dc/dcmitype/StillImage" />
        <dc:title></dc:title>
      </cc:Work>
    </rdf:RDF>
  </metadata>
  <defs
     id="defs8" />
  <sodipodi:namedview
     pagecolor="#ffffff"
     bordercolor="#666666"
     borderopacity="1"
     objecttolerance="10"
     gridtolerance="10"
     guidetolerance="10"
     inkscape:pageopacity="0"
     inkscape:pageshadow="2"
     inkscape:window-width="1920"
     inkscape:window-height="1016"
     id="namedview6"
     showgrid="false"
     inkscape:zoom="4.16"
     inkscape:cx="100"
     inkscape:cy="71.153846"
     inkscape:window-x="0"
     inkscape:window-y="27"
     inkscape:window-maximized="1"
     inkscape:current-layer="svg4" />
  <path
     d="m 412.7,619 c 0,-113.95 92.35,-206.35 206.3,-206.35 113.95,0 206.35,92.4 206.35,206.35 0,113.95 -92.4,206.35 -206.35,206.35 -113.95,0 -206.3,-92.4 -206.3,-206.35 m -111.55,0 c 0,175.55 142.3,317.85 317.85,317.85 175.55,0 317.85,-142.3 317.85,-317.85 0,-175.55 -142.3,-317.85 -317.85,-317.85 -175.55,0 -317.85,142.3 -317.85,317.85 m 574,-330.45 c 0,41 33.25,74.3 74.3,74.3 41,0 74.3,-33.3 74.3,-74.3 0,-41 -33.25,-74.25 -74.3,-74.25 -41.05,0 -74.3,33.25 -74.3,74.25 m -506.25,834.3 c -60.35,-2.75 -93.15,-12.8 -114.95,-21.3 -28.9,-11.25 -49.5,-24.65 -71.2,-46.3 -21.65,-21.65 -35.1,-42.25 -46.3,-71.15 -8.5,-21.8 -18.55,-54.6 -21.3,-114.95 -3,-65.25 -3.6,-84.85 -3.6,-250.15 0,-165.3 0.65,-184.85 3.6,-250.15 2.75,-60.35 12.85,-93.1 21.3,-114.95 11.25,-28.9 24.65,-49.5 46.3,-71.2 21.65,-21.65 42.25,-35.1 71.2,-46.3 21.8,-8.5 54.6,-18.55 114.95,-21.3 65.25,-3 84.85,-3.6 250.1,-3.6 165.3,0 184.85,0.65 250.15,3.6 60.35,2.75 93.1,12.85 114.95,21.3 28.9,11.2 49.5,24.65 71.2,46.3 21.65,21.65 35.05,42.3 46.3,71.2 8.5,21.8 18.55,54.6 21.3,114.95 3,65.3 3.6,84.85 3.6,250.15 0,165.25 -0.6,184.85 -3.6,250.15 -2.75,60.35 -12.85,93.15 -21.3,114.95 -11.25,28.9 -24.65,49.5 -46.3,71.15 -21.65,21.65 -42.3,35.05 -71.2,46.3 -21.8,8.5 -54.6,18.55 -114.95,21.3 -65.25,3 -84.85,3.6 -250.15,3.6 -165.25,0 -184.85,-0.6 -250.1,-3.6 M 363.8,3.75 C 297.9,6.75 252.9,17.2 213.55,32.5 172.85,48.3 138.35,69.5 103.9,103.9 69.5,138.3 48.3,172.8 32.5,213.55 17.2,252.9 6.75,297.9 3.75,363.8 0.7,429.8 0,450.9 0,619 c 0,168.1 0.7,189.2 3.75,255.2 3,65.9 13.45,110.9 28.75,150.25 15.8,40.7 36.95,75.25 71.4,109.65 34.4,34.4 68.9,55.55 109.65,71.4 39.4,15.3 84.35,25.75 150.25,28.75 66.05,3 87.1,3.75 255.2,3.75 168.15,0 189.2,-0.7 255.2,-3.75 65.9,-3 110.9,-13.45 150.25,-28.75 40.7,-15.85 75.2,-37 109.65,-71.4 34.4,-34.4 55.55,-68.95 71.4,-109.65 15.3,-39.35 25.8,-84.35 28.75,-150.25 3,-66.05 3.7,-87.1 3.7,-255.2 0,-168.1 -0.7,-189.2 -3.7,-255.2 -3,-65.9 -13.45,-110.9 -28.75,-150.25 -15.85,-40.7 -37,-75.2 -71.4,-109.65 C 1099.7,69.5 1065.15,48.3 1024.5,32.5 985.1,17.2 940.1,6.7 874.25,3.75 808.25,0.75 787.15,0 619.05,0 450.9,0 429.85,0.7 363.8,3.75"
     id="path2"
     inkscape:connector-curvature="0"
     style="stroke-width:0.5" />
</svg>
