<svg xmlns="http://www.w3.org/2000/svg" width="30.387" height="41.85" viewBox="0 0 30.387 41.85">
  <g id="P_Laboral" transform="translate(-70.12)">
    <path id="Path_27" data-name="Path 27" d="M76.242,200.025h-4.9V174.2a.612.612,0,0,0-1.224,0v25.94a1.11,1.11,0,0,0,1.109,1.109h5.013a.612.612,0,0,0,0-1.224Z" transform="translate(0 -159.399)" fill="#f2f2f2"/>
    <path id="Path_28" data-name="Path 28" d="M99.4,0H71.229A1.11,1.11,0,0,0,70.12,1.109V11.9a.612.612,0,0,0,1.224,0V1.224H99.283v39.4H79.2a.612.612,0,1,0,0,1.224H99.4a1.11,1.11,0,0,0,1.109-1.109V1.109A1.11,1.11,0,0,0,99.4,0Z" transform="translate(0)" fill="#f2f2f2"/>
    <path id="Path_29" data-name="Path 29" d="M161.444,52.4a7.2,7.2,0,0,1,4.566,1.635.612.612,0,0,0,.778-.945,8.405,8.405,0,1,0,1.973,2.34.612.612,0,0,0-1.064.606,7.19,7.19,0,0,1-.047,7.189,3.266,3.266,0,0,0-3.2-2.639h0a3.556,3.556,0,1,0-6.011,0h0a3.266,3.266,0,0,0-3.2,2.639A7.19,7.19,0,0,1,161.444,52.4Zm-3.006,9.41h1.483a.612.612,0,0,0,.317-1.136,2.332,2.332,0,1,1,2.41,0,.612.612,0,0,0,.317,1.136h1.483a2.039,2.039,0,0,1,2.037,2.037v.87l-.065.063-.095.089a7.177,7.177,0,0,1-3.594,1.8,7.305,7.305,0,0,1-2.578,0,7.177,7.177,0,0,1-3.6-1.8l-.092-.086-.065-.064v-.87a2.039,2.039,0,0,1,2.037-2.037Z" transform="translate(-76.13 -46.994)" fill="#f2f2f2"/>
    <path id="Path_30" data-name="Path 30" d="M133.663,293.883a.612.612,0,0,0,.612.612h7.473a.612.612,0,0,0,0-1.224h-7.473A.612.612,0,0,0,133.663,293.883Z" transform="translate(-58.349 -269.299)" fill="#f2f2f2"/>
    <path id="Path_31" data-name="Path 31" d="M134.275,331.017h7.473a.612.612,0,1,0,0-1.224h-7.473a.612.612,0,1,0,0,1.224Z" transform="translate(-58.349 -302.836)" fill="#f2f2f2"/>
    <path id="Path_32" data-name="Path 32" d="M280.018,293.271h-7.473a.612.612,0,0,0,0,1.224h7.473a.612.612,0,1,0,0-1.224Z" transform="translate(-185.317 -269.299)" fill="#f2f2f2"/>
    <path id="Path_33" data-name="Path 33" d="M132.189,369.294a2.217,2.217,0,1,0-2.217,2.217A2.219,2.219,0,0,0,132.189,369.294Zm-2.217.993a.993.993,0,1,1,.993-.993A.994.994,0,0,1,129.972,370.286Z" transform="translate(-52.924 -337.073)" fill="#f2f2f2"/>
    <path id="Path_34" data-name="Path 34" d="M231.561,367.076a2.217,2.217,0,1,0,2.217,2.217A2.219,2.219,0,0,0,231.561,367.076Zm0,3.209a.993.993,0,1,1,.993-.993A.994.994,0,0,1,231.561,370.285Z" transform="translate(-146.209 -337.072)" fill="#f2f2f2"/>
    <path id="Path_35" data-name="Path 35" d="M330,369.294a2.217,2.217,0,1,0,2.217-2.217A2.219,2.219,0,0,0,330,369.294Zm3.209,0a.993.993,0,1,1-.993-.993A.994.994,0,0,1,333.212,369.294Z" transform="translate(-238.641 -337.073)" fill="#f2f2f2"/>
  </g>
</svg>
