<svg xmlns="http://www.w3.org/2000/svg" width="38.291" height="36.693" viewBox="0 0 38.291 36.693">
  <g id="Talento" transform="translate(0 -10.684)">
    <g id="Group_11" data-name="Group 11" transform="translate(0 10.684)">
      <g id="Group_6" data-name="Group 6" transform="translate(11.966 24.599)">
        <path id="Path_41" data-name="Path 41" d="M163.8,341.1h-3.051a.748.748,0,0,1,0-1.5H163.8a.748.748,0,0,1,0,1.5Z" transform="translate(-160.004 -339.6)" fill="#f2f2f2"/>
      </g>
      <g id="Group_7" data-name="Group 7" transform="translate(21.778 24.599)">
        <path id="Path_42" data-name="Path 42" d="M295,341.1h-3.051a.748.748,0,1,1,0-1.5H295a.748.748,0,1,1,0,1.5Z" transform="translate(-291.204 -339.6)" fill="#f2f2f2"/>
      </g>
      <g id="Group_8" data-name="Group 8" transform="translate(18.385 24.601)">
        <path id="Path_43" data-name="Path 43" d="M246.581,341.124a.748.748,0,1,1,.733-.6A.754.754,0,0,1,246.581,341.124Z" transform="translate(-245.835 -339.63)" fill="#f2f2f2"/>
      </g>
      <g id="Group_10" data-name="Group 10" transform="translate(14.057 27.545)">
        <g id="Group_9" data-name="Group 9">
          <path id="Path_44" data-name="Path 44" d="M197.387,380.495h-8.681a.748.748,0,0,1,0-1.5h8.681a.748.748,0,1,1,0,1.5Z" transform="translate(-187.958 -378.999)" fill="#f2f2f2"/>
        </g>
      </g>
      <path id="Path_45" data-name="Path 45" d="M183.875,132.01a4.82,4.82,0,1,0-6.36,0,4.52,4.52,0,0,0-2.907,4.218v1.282a.748.748,0,0,0,.748.748h10.678a.748.748,0,0,0,.748-.748v-1.282a4.52,4.52,0,0,0-2.907-4.218Zm-3.18-6.944a3.325,3.325,0,1,1-3.324,3.324A3.328,3.328,0,0,1,180.7,125.066Zm4.591,11.7H176.1v-.534a3.02,3.02,0,0,1,3.017-3.017h3.149a3.02,3.02,0,0,1,3.017,3.017v.534Z" transform="translate(-161.55 -115.128)" fill="#f2f2f2"/>
      <path id="Path_46" data-name="Path 46" d="M9.027,47.377a2.786,2.786,0,0,1-2.764-3.024l.848-9.77L.683,27.177a2.78,2.78,0,0,1,1.472-4.531l9.553-2.213,5.056-8.4a2.78,2.78,0,0,1,4.764,0l5.056,8.4,9.553,2.213a2.78,2.78,0,0,1,1.472,4.531L31.18,34.583l.848,9.77a2.78,2.78,0,0,1-3.854,2.8l-9.028-3.826-9.028,3.826a2.79,2.79,0,0,1-1.09.223Zm10.118-35.2a1.274,1.274,0,0,0-1.1.622l-5.219,8.674a.748.748,0,0,1-.472.343L2.493,24.1a1.285,1.285,0,0,0-.68,2.094l6.635,7.645a.748.748,0,0,1,.18.555L7.753,44.482a1.284,1.284,0,0,0,1.78,1.294l9.32-3.949a.747.747,0,0,1,.583,0l9.32,3.949a1.284,1.284,0,0,0,1.78-1.294L29.663,34.4a.748.748,0,0,1,.18-.555L36.478,26.2A1.285,1.285,0,0,0,35.8,24.1l-9.861-2.284a.748.748,0,0,1-.472-.343L20.246,12.8a1.274,1.274,0,0,0-1.1-.622Z" transform="translate(0 -10.684)" fill="#f2f2f2"/>
    </g>
  </g>
</svg>
