<svg xmlns="http://www.w3.org/2000/svg" width="34.992" height="34.071" viewBox="0 0 34.992 34.071">
  <g id="Conexion" transform="translate(0 -4.218)">
    <path id="Path_24" data-name="Path 24" d="M36.49,16.767V10.7a3.291,3.291,0,1,0-1.638,0v6.069a5.494,5.494,0,0,0-3.991,2.794l-3.6-2.8a2.378,2.378,0,1,0-1.047,1.26l4.071,3.165a5.456,5.456,0,0,0,.978,4.25l-4.6,4.6A.819.819,0,0,0,27.818,31.2l4.6-4.6a5.453,5.453,0,0,0,2.432,1.01v6.083a2.374,2.374,0,1,0,1.638,0V27.6a5.48,5.48,0,0,0,0-10.838Zm-11.467-.061a.736.736,0,1,1,.736-.736A.737.737,0,0,1,25.023,16.705Zm8.995-9.2a1.654,1.654,0,1,1,1.654,1.654A1.655,1.655,0,0,1,34.018,7.509Zm1.654,29.142a.736.736,0,0,1-.148-1.458.785.785,0,0,0,.3,0,.736.736,0,0,1-.148,1.458Zm0-10.623a3.841,3.841,0,0,1-3.688-4.92c.005-.017.01-.034.015-.051a3.843,3.843,0,1,1,3.673,4.971Z" transform="translate(-20.176)" fill="#f2f2f2"/>
    <path id="Path_25" data-name="Path 25" d="M210.769,95.953a3.3,3.3,0,0,0-3.291,3.291c0,.085,0,.168.011.251l-5.921,2.019a.819.819,0,1,0,.528,1.55l5.921-2.019a3.29,3.29,0,1,0,2.753-5.092Zm0,4.945a1.654,1.654,0,1,1,1.654-1.654A1.656,1.656,0,0,1,210.769,100.9Z" transform="translate(-179.068 -81.72)" fill="#f2f2f2"/>
    <path id="Path_26" data-name="Path 26" d="M3.291,250.44a3.291,3.291,0,1,0,3.291,3.291A3.295,3.295,0,0,0,3.291,250.44Zm0,4.945a1.654,1.654,0,1,1,1.654-1.654A1.656,1.656,0,0,1,3.291,255.385Z" transform="translate(0 -219.342)" fill="#f2f2f2"/>
  </g>
</svg>
