<svg xmlns="http://www.w3.org/2000/svg" width="37.167" height="31.215" viewBox="0 0 37.167 31.215">
  <g id="P_Cargo" transform="translate(0 -41)">
    <path id="Path_36" data-name="Path 36" d="M239.9,377h-5.807a1.089,1.089,0,0,0,0,2.178H239.9a1.089,1.089,0,0,0,0-2.178Z" transform="translate(-216.086 -311.609)" fill="#f2f2f2"/>
    <path id="Path_37" data-name="Path 37" d="M234.089,315.178h4.065a1.089,1.089,0,1,0,0-2.178h-4.065a1.089,1.089,0,1,0,0,2.178Z" transform="translate(-216.086 -252.255)" fill="#f2f2f2"/>
    <path id="Path_38" data-name="Path 38" d="M37.167,49.639a8.639,8.639,0,0,0-16.8-2.831H3.267A3.27,3.27,0,0,0,0,50.074V68.948a3.27,3.27,0,0,0,3.267,3.267H30.344a3.27,3.27,0,0,0,3.267-3.267V56.62A8.632,8.632,0,0,0,37.167,49.639Zm-8.639-6.461a6.461,6.461,0,1,1-6.461,6.461A6.468,6.468,0,0,1,28.529,43.178Zm2.9,25.77a1.09,1.09,0,0,1-1.089,1.089H3.267a1.09,1.09,0,0,1-1.089-1.089V50.074a1.09,1.09,0,0,1,1.089-1.089H19.915q-.024.324-.025.653a8.639,8.639,0,0,0,11.542,8.136Z" fill="#f2f2f2"/>
    <path id="Path_39" data-name="Path 39" d="M347.273,126.061a1.089,1.089,0,0,0,.848.595,1.109,1.109,0,0,0,.126.007,1.089,1.089,0,0,0,.836-.392l2.9-3.484a1.089,1.089,0,0,0-1.673-1.394l-1.838,2.205-.417-.834a1.089,1.089,0,0,0-1.948.974Z" transform="translate(-320.879 -74.193)" fill="#f2f2f2"/>
    <path id="Path_40" data-name="Path 40" d="M72.411,215.8a3.993,3.993,0,1,0-5.675,0A4.566,4.566,0,0,0,65,219.381v2.9a1.089,1.089,0,0,0,1.089,1.089h6.969a1.089,1.089,0,0,0,1.089-1.089v-2.9A4.566,4.566,0,0,0,72.411,215.8Zm-4.652-2.805a1.815,1.815,0,1,1,1.815,1.815A1.817,1.817,0,0,1,67.759,212.993Zm4.21,8.2H67.178v-1.815a2.4,2.4,0,1,1,4.791,0Z" transform="translate(-60.281 -155.804)" fill="#f2f2f2"/>
  </g>
</svg>
