<?xml version="1.0" encoding="UTF-8" standalone="no"?>
<!-- Created with Inkscape (http://www.inkscape.org/) -->

<svg
   xmlns:dc="http://purl.org/dc/elements/1.1/"
   xmlns:cc="http://creativecommons.org/ns#"
   xmlns:rdf="http://www.w3.org/1999/02/22-rdf-syntax-ns#"
   xmlns:svg="http://www.w3.org/2000/svg"
   xmlns="http://www.w3.org/2000/svg"
   xmlns:sodipodi="http://sodipodi.sourceforge.net/DTD/sodipodi-0.dtd"
   xmlns:inkscape="http://www.inkscape.org/namespaces/inkscape"
   width="80"
   height="80"
   viewBox="0 0 21.166666 21.166667"
   version="1.1"
   id="svg8"
   inkscape:version="0.92.5 (2060ec1f9f, 2020-04-08)"
   sodipodi:docname="connection-icon.svg">
  <defs
     id="defs2" />
  <sodipodi:namedview
     id="base"
     pagecolor="#ffffff"
     bordercolor="#666666"
     borderopacity="1.0"
     inkscape:pageopacity="0.0"
     inkscape:pageshadow="2"
     inkscape:zoom="7.9195959"
     inkscape:cx="8.5622842"
     inkscape:cy="46.665185"
     inkscape:document-units="mm"
     inkscape:current-layer="layer1"
     showgrid="false"
     units="px"
     inkscape:window-width="1920"
     inkscape:window-height="1016"
     inkscape:window-x="0"
     inkscape:window-y="27"
     inkscape:window-maximized="1" />
  <metadata
     id="metadata5">
    <rdf:RDF>
      <cc:Work
         rdf:about="">
        <dc:format>image/svg+xml</dc:format>
        <dc:type
           rdf:resource="http://purl.org/dc/dcmitype/StillImage" />
        <dc:title></dc:title>
      </cc:Work>
    </rdf:RDF>
  </metadata>
  <g
     inkscape:label="Layer 1"
     inkscape:groupmode="layer"
     id="layer1"
     transform="translate(0,-275.83332)">
    <rect
       style="fill:#750543;stroke-width:0.26458332;fill-opacity:1"
       id="rect4520"
       width="20.913839"
       height="20.713387"
       x="0.16704345"
       y="276.08615"
       rx="2.6458333"
       ry="2.6458333" />
    <g
       transform="matrix(0.36101437,0,0,0.36101437,4.307725,278.76826)"
       id="Conexion">
      <path
         transform="translate(-20.176)"
         d="M 36.49,16.767 V 10.7 a 3.291,3.291 0 1 0 -1.638,0 v 6.069 a 5.494,5.494 0 0 0 -3.991,2.794 l -3.6,-2.8 a 2.378,2.378 0 1 0 -1.047,1.26 l 4.071,3.165 a 5.456,5.456 0 0 0 0.978,4.25 l -4.6,4.6 a 0.81918694,0.81918694 0 0 0 1.155,1.162 l 4.6,-4.6 a 5.453,5.453 0 0 0 2.432,1.01 v 6.083 a 2.374,2.374 0 1 0 1.638,0 V 27.6 a 5.48,5.48 0 0 0 0,-10.838 z M 25.023,16.706 a 0.736,0.736 0 1 1 0.736,-0.736 0.737,0.737 0 0 1 -0.736,0.735 z m 8.995,-9.2 A 1.654,1.654 0 1 1 35.672,9.16 1.655,1.655 0 0 1 34.018,7.509 Z m 1.654,29.142 a 0.736,0.736 0 0 1 -0.148,-1.458 0.785,0.785 0 0 0 0.3,0 0.736,0.736 0 0 1 -0.148,1.458 z m 0,-10.623 a 3.841,3.841 0 0 1 -3.688,-4.92 c 0.005,-0.017 0.01,-0.034 0.015,-0.051 a 3.843,3.843 0 1 1 3.673,4.971 z"
         data-name="Path 24"
         id="Path_24"
         inkscape:connector-curvature="0"
         style="fill:#f2f2f2" />
      <path
         transform="translate(-179.068,-81.72)"
         d="m 210.769,95.953 a 3.3,3.3 0 0 0 -3.291,3.291 c 0,0.085 0,0.168 0.011,0.251 l -5.921,2.019 a 0.819,0.819 0 1 0 0.528,1.55 l 5.921,-2.019 a 3.29,3.29 0 1 0 2.753,-5.092 z m 0,4.945 a 1.654,1.654 0 1 1 1.654,-1.654 1.656,1.656 0 0 1 -1.654,1.656 z"
         data-name="Path 25"
         id="Path_25"
         inkscape:connector-curvature="0"
         style="fill:#f2f2f2" />
      <path
         transform="translate(0,-219.342)"
         d="m 3.291,250.44 a 3.291,3.291 0 1 0 3.291,3.291 3.295,3.295 0 0 0 -3.291,-3.291 z m 0,4.945 a 1.654,1.654 0 1 1 1.654,-1.654 1.656,1.656 0 0 1 -1.654,1.654 z"
         data-name="Path 26"
         id="Path_26"
         inkscape:connector-curvature="0"
         style="fill:#f2f2f2" />
    </g>
  </g>
</svg>
