<svg xmlns="http://www.w3.org/2000/svg" width="28" height="22.922" viewBox="0 0 28 22.922">
  <g id="Desing" transform="translate(0 159.265)">
    <g id="Group_22" data-name="Group 22" transform="translate(0 -159.265)">
      <g id="Group_21" data-name="Group 21">
        <path id="Path_55" data-name="Path 55" d="M27.18,0H23.9a.82.82,0,0,0-.82.82v.82H16.32a2.46,2.46,0,0,0-4.64,0H4.922V.82A.82.82,0,0,0,4.1,0H.82A.82.82,0,0,0,0,.82V4.1a.82.82,0,0,0,.82.82H4.1a.82.82,0,0,0,.82-.82V3.27H8.333a10.777,10.777,0,0,0-4.975,8.4A2.46,2.46,0,1,0,5,11.689,9.159,9.159,0,0,1,11.8,3.554a2.46,2.46,0,0,0,4.408,0A9.159,9.159,0,0,1,23,11.689a2.462,2.462,0,1,0,1.644-.016,10.758,10.758,0,0,0-4.975-8.391h3.411V4.1a.82.82,0,0,0,.82.82H27.18A.82.82,0,0,0,28,4.1V.82A.82.82,0,0,0,27.18,0ZM3.281,3.281H1.641V1.641H3.281ZM4.156,14.82a.82.82,0,1,1,.82-.82A.821.821,0,0,1,4.156,14.82ZM14,3.281a.82.82,0,1,1,.82-.82A.821.821,0,0,1,14,3.281Zm9.844,9.9a.82.82,0,1,1-.82.82A.821.821,0,0,1,23.844,13.18Zm2.516-9.9H24.719V1.641h1.641Z" fill="#fff"/>
      </g>
    </g>
    <g id="Group_24" data-name="Group 24" transform="translate(6.617 -157.726)">
      <g id="Group_23" data-name="Group 23">
        <path id="Path_56" data-name="Path 56" d="M135.628,131.219l-6.562-9.844h0l-.007-.01c-.011-.016-.023-.032-.035-.047a.82.82,0,0,0-1.313.047l-.007.01h0l-6.563,9.844a.82.82,0,0,0,.1,1.035,10.393,10.393,0,0,1,2.962,6.065,4.23,4.23,0,0,0-.367.333,4.158,4.158,0,0,0-1.195,2.921.82.82,0,0,0,.82.82H133.3a.82.82,0,0,0,.82-.82,4.158,4.158,0,0,0-1.195-2.921,4.23,4.23,0,0,0-.367-.333,10.391,10.391,0,0,1,2.962-6.065A.82.82,0,0,0,135.628,131.219Zm-7.245-.365a.82.82,0,1,1-.82.82A.821.821,0,0,1,128.383,130.854Zm-3.962,9.9a2.506,2.506,0,0,1,2.321-1.7h3.281a2.506,2.506,0,0,1,2.321,1.7Zm6.6-3.211a4.03,4.03,0,0,0-1-.125h-3.281a4.027,4.027,0,0,0-1,.125,12.037,12.037,0,0,0-2.879-5.955l4.7-7.046v4.815a2.461,2.461,0,1,0,1.641,0v-4.815l4.7,7.046A12.036,12.036,0,0,0,131.021,137.541Z" transform="translate(-121 -121.01)" fill="#fff"/>
      </g>
    </g>
  </g>
</svg>
