<svg xmlns="http://www.w3.org/2000/svg" width="28.776" height="13.863" viewBox="0 0 28.776 13.863">
  <g id="Programmer" transform="translate(0 -59.805)">
    <path id="Path_57" data-name="Path 57" d="M7.525,61.366a.935.935,0,0,0-1.322,0L.274,67.294a.935.935,0,0,0,0,1.322l5.9,5.9A.935.935,0,1,0,7.5,73.2L2.258,67.955l5.268-5.267A.935.935,0,0,0,7.525,61.366Z" transform="translate(0 -1.126)" fill="#fff"/>
    <path id="Path_58" data-name="Path 58" d="M175.768,67.269l-5.9-5.9a.935.935,0,0,0-1.322,1.323l5.243,5.243L168.516,73.2a.935.935,0,0,0,1.322,1.322l5.929-5.928a.935.935,0,0,0,0-1.323Z" transform="translate(-147.266 -1.125)" fill="#fff"/>
    <path id="Path_59" data-name="Path 59" d="M82.372,59.992a.935.935,0,0,0-1.309.188L72.087,72.172a.935.935,0,1,0,1.5,1.121L82.561,61.3A.935.935,0,0,0,82.372,59.992Z" transform="translate(-62.936)" fill="#fff"/>
  </g>
</svg>
