<?xml version="1.0" encoding="UTF-8" standalone="no"?>
<!-- Created with Inkscape (http://www.inkscape.org/) -->

<svg
   xmlns:dc="http://purl.org/dc/elements/1.1/"
   xmlns:cc="http://creativecommons.org/ns#"
   xmlns:rdf="http://www.w3.org/1999/02/22-rdf-syntax-ns#"
   xmlns:svg="http://www.w3.org/2000/svg"
   xmlns="http://www.w3.org/2000/svg"
   xmlns:sodipodi="http://sodipodi.sourceforge.net/DTD/sodipodi-0.dtd"
   xmlns:inkscape="http://www.inkscape.org/namespaces/inkscape"
   width="80"
   height="80"
   viewBox="0 0 21.166666 21.166667"
   version="1.1"
   id="svg8"
   inkscape:version="0.92.5 (2060ec1f9f, 2020-04-08)"
   sodipodi:docname="role-icon.svg">
  <defs
     id="defs2" />
  <sodipodi:namedview
     id="base"
     pagecolor="#ffffff"
     bordercolor="#666666"
     borderopacity="1.0"
     inkscape:pageopacity="0.0"
     inkscape:pageshadow="2"
     inkscape:zoom="7.9195959"
     inkscape:cx="8.5622842"
     inkscape:cy="46.665185"
     inkscape:document-units="mm"
     inkscape:current-layer="layer1"
     showgrid="false"
     units="px"
     inkscape:window-width="1920"
     inkscape:window-height="1016"
     inkscape:window-x="0"
     inkscape:window-y="27"
     inkscape:window-maximized="1" />
  <metadata
     id="metadata5">
    <rdf:RDF>
      <cc:Work
         rdf:about="">
        <dc:format>image/svg+xml</dc:format>
        <dc:type
           rdf:resource="http://purl.org/dc/dcmitype/StillImage" />
        <dc:title></dc:title>
      </cc:Work>
    </rdf:RDF>
  </metadata>
  <g
     inkscape:label="Layer 1"
     inkscape:groupmode="layer"
     id="layer1"
     transform="translate(0,-275.83332)">
    <rect
       style="fill:#750543;stroke-width:0.26458332;fill-opacity:1"
       id="rect4520"
       width="20.913839"
       height="20.713387"
       x="0.16704345"
       y="276.08615"
       rx="2.6458333"
       ry="2.6458333" />
    <g
       transform="matrix(0.31810196,0,0,0.31810196,4.7125153,268.43544)"
       id="P_Cargo">
      <path
         transform="translate(-216.086,-311.609)"
         d="m 239.9,377 h -5.807 a 1.089,1.089 0 0 0 0,2.178 h 5.807 a 1.089,1.089 0 0 0 0,-2.178 z"
         data-name="Path 36"
         id="Path_36"
         inkscape:connector-curvature="0"
         style="fill:#f2f2f2" />
      <path
         transform="translate(-216.086,-252.255)"
         d="m 234.089,315.178 h 4.065 a 1.089,1.089 0 1 0 0,-2.178 h -4.065 a 1.089,1.089 0 1 0 0,2.178 z"
         data-name="Path 37"
         id="Path_37"
         inkscape:connector-curvature="0"
         style="fill:#f2f2f2" />
      <path
         d="m 37.167,49.639 a 8.639,8.639 0 0 0 -16.8,-2.831 H 3.267 A 3.27,3.27 0 0 0 0,50.074 v 18.874 a 3.27,3.27 0 0 0 3.267,3.267 h 27.077 a 3.27,3.27 0 0 0 3.267,-3.267 V 56.62 a 8.632,8.632 0 0 0 3.556,-6.981 z m -8.639,-6.461 a 6.461,6.461 0 1 1 -6.461,6.461 6.468,6.468 0 0 1 6.462,-6.461 z m 2.9,25.77 a 1.09,1.09 0 0 1 -1.089,1.089 H 3.267 A 1.09,1.09 0 0 1 2.178,68.948 V 50.074 a 1.09,1.09 0 0 1 1.089,-1.089 h 16.648 q -0.024,0.324 -0.025,0.653 a 8.639,8.639 0 0 0 11.542,8.136 z"
         data-name="Path 38"
         id="Path_38"
         inkscape:connector-curvature="0"
         style="fill:#f2f2f2" />
      <path
         transform="translate(-320.879,-74.193)"
         d="m 347.273,126.061 a 1.089,1.089 0 0 0 0.848,0.595 1.109,1.109 0 0 0 0.126,0.007 1.089,1.089 0 0 0 0.836,-0.392 l 2.9,-3.484 a 1.089,1.089 0 0 0 -1.673,-1.394 l -1.838,2.205 -0.417,-0.834 a 1.089,1.089 0 0 0 -1.948,0.974 z"
         data-name="Path 39"
         id="Path_39"
         inkscape:connector-curvature="0"
         style="fill:#f2f2f2" />
      <path
         transform="translate(-60.281,-155.804)"
         d="m 72.411,215.8 a 3.993,3.993 0 1 0 -5.675,0 4.566,4.566 0 0 0 -1.736,3.581 v 2.9 a 1.089,1.089 0 0 0 1.089,1.089 h 6.969 a 1.089,1.089 0 0 0 1.089,-1.089 v -2.9 A 4.566,4.566 0 0 0 72.411,215.8 Z m -4.652,-2.805 a 1.815,1.815 0 1 1 1.815,1.815 1.817,1.817 0 0 1 -1.815,-1.817 z m 4.21,8.2 h -4.791 v -1.815 a 2.4,2.4 0 1 1 4.791,0 z"
         data-name="Path 40"
         id="Path_40"
         inkscape:connector-curvature="0"
         style="fill:#f2f2f2" />
    </g>
  </g>
</svg>
