<?xml version="1.0" encoding="UTF-8" standalone="no"?>
<!-- Created with Inkscape (http://www.inkscape.org/) -->

<svg
   xmlns:dc="http://purl.org/dc/elements/1.1/"
   xmlns:cc="http://creativecommons.org/ns#"
   xmlns:rdf="http://www.w3.org/1999/02/22-rdf-syntax-ns#"
   xmlns:svg="http://www.w3.org/2000/svg"
   xmlns="http://www.w3.org/2000/svg"
   xmlns:sodipodi="http://sodipodi.sourceforge.net/DTD/sodipodi-0.dtd"
   xmlns:inkscape="http://www.inkscape.org/namespaces/inkscape"
   width="80"
   height="80"
   viewBox="0 0 21.166666 21.166667"
   version="1.1"
   id="svg8"
   inkscape:version="0.92.5 (2060ec1f9f, 2020-04-08)"
   sodipodi:docname="talent-icon.svg">
  <defs
     id="defs2" />
  <sodipodi:namedview
     id="base"
     pagecolor="#ffffff"
     bordercolor="#666666"
     borderopacity="1.0"
     inkscape:pageopacity="0.0"
     inkscape:pageshadow="2"
     inkscape:zoom="7.9195959"
     inkscape:cx="8.5622842"
     inkscape:cy="46.665185"
     inkscape:document-units="mm"
     inkscape:current-layer="layer1"
     showgrid="false"
     units="px"
     inkscape:window-width="1920"
     inkscape:window-height="1016"
     inkscape:window-x="0"
     inkscape:window-y="27"
     inkscape:window-maximized="1" />
  <metadata
     id="metadata5">
    <rdf:RDF>
      <cc:Work
         rdf:about="">
        <dc:format>image/svg+xml</dc:format>
        <dc:type
           rdf:resource="http://purl.org/dc/dcmitype/StillImage" />
        <dc:title></dc:title>
      </cc:Work>
    </rdf:RDF>
  </metadata>
  <g
     inkscape:label="Layer 1"
     inkscape:groupmode="layer"
     id="layer1"
     transform="translate(0,-275.83332)">
    <rect
       style="fill:#750543;stroke-width:0.26458332;fill-opacity:1"
       id="rect4520"
       width="20.913839"
       height="20.713387"
       x="0.16704345"
       y="276.08615"
       rx="2.6458333"
       ry="2.6458333" />
    <g
       transform="matrix(0.3099569,0,0,0.3099569,4.6895283,277.44428)"
       id="Talento">
      <g
         transform="translate(0,10.684)"
         data-name="Group 11"
         id="Group_11">
        <g
           transform="translate(11.966,24.599)"
           data-name="Group 6"
           id="Group_6">
          <path
             transform="translate(-160.004,-339.6)"
             d="m 163.8,341.1 h -3.051 a 0.75,0.75 0 0 1 0,-1.5 h 3.051 a 0.75,0.75 0 0 1 0,1.5 z"
             data-name="Path 41"
             id="Path_41"
             inkscape:connector-curvature="0"
             style="fill:#f2f2f2" />
        </g>
        <g
           transform="translate(21.778,24.599)"
           data-name="Group 7"
           id="Group_7">
          <path
             transform="translate(-291.204,-339.6)"
             d="m 295,341.1 h -3.051 a 0.75,0.75 0 1 1 0,-1.5 H 295 a 0.75,0.75 0 1 1 0,1.5 z"
             data-name="Path 42"
             id="Path_42"
             inkscape:connector-curvature="0"
             style="fill:#f2f2f2" />
        </g>
        <g
           transform="translate(18.385,24.601)"
           data-name="Group 8"
           id="Group_8">
          <path
             transform="translate(-245.835,-339.63)"
             d="m 246.581,341.124 a 0.748,0.748 0 1 1 0.733,-0.6 0.754,0.754 0 0 1 -0.733,0.6 z"
             data-name="Path 43"
             id="Path_43"
             inkscape:connector-curvature="0"
             style="fill:#f2f2f2" />
        </g>
        <g
           transform="translate(14.057,27.545)"
           data-name="Group 10"
           id="Group_10">
          <g
             data-name="Group 9"
             id="Group_9">
            <path
               transform="translate(-187.958,-378.999)"
               d="m 197.387,380.495 h -8.681 a 0.75,0.75 0 0 1 0,-1.5 h 8.681 a 0.75,0.75 0 1 1 0,1.5 z"
               data-name="Path 44"
               id="Path_44"
               inkscape:connector-curvature="0"
               style="fill:#f2f2f2" />
          </g>
        </g>
        <path
           transform="translate(-161.55,-115.128)"
           d="m 183.875,132.01 a 4.82,4.82 0 1 0 -6.36,0 4.52,4.52 0 0 0 -2.907,4.218 v 1.282 a 0.748,0.748 0 0 0 0.748,0.748 h 10.678 a 0.748,0.748 0 0 0 0.748,-0.748 v -1.282 a 4.52,4.52 0 0 0 -2.907,-4.218 z m -3.18,-6.944 a 3.325,3.325 0 1 1 -3.324,3.324 3.328,3.328 0 0 1 3.329,-3.324 z m 4.591,11.7 H 176.1 v -0.534 a 3.02,3.02 0 0 1 3.017,-3.017 h 3.149 a 3.02,3.02 0 0 1 3.017,3.017 v 0.534 z"
           data-name="Path 45"
           id="Path_45"
           inkscape:connector-curvature="0"
           style="fill:#f2f2f2" />
        <path
           transform="translate(0,-10.684)"
           d="M 9.027,47.377 A 2.786,2.786 0 0 1 6.263,44.353 l 0.848,-9.77 -6.428,-7.406 a 2.78,2.78 0 0 1 1.472,-4.531 l 9.553,-2.213 5.056,-8.4 a 2.78,2.78 0 0 1 4.764,0 l 5.056,8.4 9.553,2.213 a 2.78,2.78 0 0 1 1.472,4.531 l -6.429,7.406 0.848,9.77 a 2.78,2.78 0 0 1 -3.854,2.8 l -9.028,-3.826 -9.028,3.826 a 2.79,2.79 0 0 1 -1.09,0.223 z m 10.118,-35.2 a 1.274,1.274 0 0 0 -1.1,0.622 l -5.219,8.674 a 0.748,0.748 0 0 1 -0.472,0.343 L 2.493,24.1 a 1.285,1.285 0 0 0 -0.68,2.094 l 6.635,7.645 a 0.748,0.748 0 0 1 0.18,0.555 L 7.753,44.482 a 1.284,1.284 0 0 0 1.78,1.294 l 9.32,-3.949 a 0.747,0.747 0 0 1 0.583,0 l 9.32,3.949 a 1.284,1.284 0 0 0 1.78,-1.294 L 29.663,34.4 a 0.748,0.748 0 0 1 0.18,-0.555 L 36.478,26.2 A 1.285,1.285 0 0 0 35.8,24.1 L 25.939,21.816 A 0.748,0.748 0 0 1 25.467,21.473 L 20.246,12.8 a 1.274,1.274 0 0 0 -1.1,-0.622 z"
           data-name="Path 46"
           id="Path_46"
           inkscape:connector-curvature="0"
           style="fill:#f2f2f2" />
      </g>
    </g>
  </g>
</svg>
